<svg width="32" height="32" viewBox="0 0 32 32" fill="none" xmlns="http://www.w3.org/2000/svg">
<path d="M19 19H24.5V9H15V13.6065C15.0093 13.6179 15.0187 13.6292 15.0278 13.6407C15.3281 13.5565 15.6476 13.5 16 13.5C17.6467 13.5 18.7576 14.4674 18.9583 15.9974L19 16V19Z" fill="#17171A"/>
<path d="M27.1992 9H26.5V5H13.001L12.9892 12.2453C13.3456 12.3593 13.6837 12.5027 13.9883 12.6938L13.999 6H25.5V21.5C25.5 22.3272 24.8272 23 24 23H19V24H24C25.3789 24 26.5 22.8789 26.5 21.5V15.5H27.1992C29.2344 15.5 30.4981 14.2549 30.4981 12.25C30.4981 10.2451 29.2344 9 27.1992 9ZM27.1992 14.5H26.5V10H27.1992C28.6602 10 29.4981 10.8203 29.4981 12.25C29.4981 13.6797 28.6602 14.5 27.1992 14.5Z" fill="#17171A"/>
<path d="M16 18H7V24H16V18Z" fill="#17171A"/>
<path d="M17 27.5C17 28.3272 16.3272 29 15.5 29H7.5C6.67285 29 6 28.3272 6 27.5V18H5V18.5H4.5C4.32483 18.5 4.16223 18.5199 4 18.5401C2.44836 18.7335 1.5 19.8246 1.5 21.5C1.5 23.1754 2.44836 24.2665 4 24.4599C4.16223 24.4801 4.32483 24.5 4.5 24.5H5V27.5C5 28.8789 6.12158 30 7.5 30H15.5C16.8789 30 18 28.8789 18 27.5V18H17V27.5ZM5 23.5H4.5C4.31427 23.5 4.1535 23.4792 4 23.4528C2.71539 23.2318 2.5 22.1674 2.5 21.5C2.5 20.8326 2.71539 19.7682 4 19.5472C4.1535 19.5208 4.31427 19.5 4.5 19.5H5V23.5Z" fill="#17171A"/>
<path d="M16 14.5C15.4391 14.5 14.991 14.6495 14.6573 14.9174C14.1183 13.7444 12.9736 13 11.5 13C10.0264 13 8.88171 13.7444 8.34271 14.9174C8.00897 14.6495 7.56091 14.5 7 14.5C5.729 14.5 5 15.229 5 16.5V17H18V16.5C18 15.229 17.2715 14.5 16 14.5Z" fill="#17171A"/>
</svg>
