<svg width="32" height="32" viewBox="0 0 32 32" fill="none" xmlns="http://www.w3.org/2000/svg">
<path d="M21.668 29.124C21.6055 29.623 21.1787 30 20.6758 30H11.3237C10.8208 30 10.3945 29.6231 10.332 29.1231L7.69141 8H6.68365L9.33984 29.2471C9.46436 30.2461 10.3174 31 11.3237 31H20.6758C21.6826 31 22.5352 30.2461 22.6602 29.2481L25.3164 8H24.3086L21.668 29.124Z" fill="#17171A"/>
<path d="M25.5 6.5C25.5 4.8877 24.5234 4 22.75 4C21.8231 4 21.1201 4.24811 20.6542 4.70984C19.9607 3.03888 18.2634 2 16 2C13.7363 2 12.0392 3.03888 11.3458 4.70978C10.8799 4.24805 10.1769 4 9.25 4C7.47656 4 6.5 4.8877 6.5 6.5V7H25.5V6.5Z" fill="#17171A"/>
<path d="M21.6758 21L23.3008 8H8.69922L10.3242 21H21.6758ZM19.6299 17.9199L18.6631 18.1777L18.168 16.3296L16.5 15.3665V17.293L17.8535 18.6465L17.1465 19.3535L16 18.207L14.8535 19.3535L14.1465 18.6465L15.5 17.293V15.3659L13.831 16.3296L13.3359 18.1777L12.3701 17.9199L12.7897 16.3536L11.2236 15.9341L11.4824 14.9683L13.331 15.4634L14.9996 14.5001L13.331 13.5366L11.4824 14.0317L11.2236 13.0659L12.7895 12.6464L12.3701 11.0806L13.3359 10.8218L13.8311 12.6703L15.5 13.6339V11.707L14.1465 10.3535L14.8535 9.64648L16 10.793L17.1465 9.64649L17.8535 10.3535L16.5 11.707V13.6339L18.1679 12.671L18.6641 10.8218L19.6309 11.0806L19.2106 12.6466L20.7754 13.0659L20.5176 14.0317L18.668 13.5366L16.9999 14.4998L18.669 15.4635L20.5186 14.9683L20.7764 15.9341L19.2103 16.3534L19.6299 17.9199Z" fill="#17171A"/>
</svg>
